<svg xmlns="http://www.w3.org/2000/svg" viewBox="0 0 1024 1024" fill="none"><defs><linearGradient id="pg" x1="0" y1="0" x2="1024" y2="1024" gradientUnits="userSpaceOnUse"><stop offset="0" stop-color="#1b2c49"/><stop offset="0.55" stop-color="#101d33"/><stop offset="1" stop-color="#080e1a"/></linearGradient><radialGradient id="sh" cx="0.4" cy="0.3" r="0.75"><stop offset="0" stop-color="#82a5d7" stop-opacity="0.22"/><stop offset="1" stop-color="#82a5d7" stop-opacity="0"/></radialGradient></defs><rect x="0" y="0" width="1024" height="1024" rx="200" fill="url(#pg)"/><rect x="0" y="0" width="1024" height="1024" rx="200" fill="url(#sh)"/><g><polygon points="441.9,379.7 414.1,507.0 530.8,597.0" fill="rgb(255,222,90)" fill-opacity="0.997" stroke="rgb(255,222,90)" stroke-opacity="0.997" stroke-width="4.10" stroke-linejoin="round"/><polygon points="361.3,660.5 441.9,379.7 355.3,360.1" fill="rgb(255,227,94)" fill-opacity="0.998" stroke="rgb(255,227,94)" stroke-opacity="0.998" stroke-width="4.10" stroke-linejoin="round"/><polygon points="361.3,660.5 408.9,629.9 441.9,379.7" fill="rgb(152,96,32)" fill-opacity="0.941" stroke="rgb(152,96,32)" stroke-opacity="0.941" stroke-width="4.10" stroke-linejoin="round"/><polygon points="441.9,379.7 530.8,597.0 504.3,511.9" fill="rgb(167,106,35)" fill-opacity="0.907" stroke="rgb(167,106,35)" stroke-opacity="0.907" stroke-width="4.10" stroke-linejoin="round"/><polygon points="569.7,677.9 685.8,634.6 685.2,405.7" fill="rgb(255,255,127)" fill-opacity="0.993" stroke="rgb(255,255,127)" stroke-opacity="0.993" stroke-width="4.10" stroke-linejoin="round"/><polygon points="776.1,754.8 569.7,677.9 685.8,634.6" fill="rgb(227,145,48)" fill-opacity="0.985" stroke="rgb(227,145,48)" stroke-opacity="0.985" stroke-width="4.10" stroke-linejoin="round"/><polygon points="477.4,661.4 414.1,507.0 530.8,597.0" fill="rgb(244,156,51)" fill-opacity="0.968" stroke="rgb(244,156,51)" stroke-opacity="0.968" stroke-width="4.10" stroke-linejoin="round"/><polygon points="504.3,511.9 530.8,597.0 575.9,531.9" fill="rgb(255,186,62)" fill-opacity="0.981" stroke="rgb(255,186,62)" stroke-opacity="0.981" stroke-width="4.10" stroke-linejoin="round"/><polygon points="209.0,711.2 355.3,360.1 361.3,660.5" fill="rgb(255,255,123)" fill-opacity="0.981" stroke="rgb(255,255,123)" stroke-opacity="0.981" stroke-width="4.10" stroke-linejoin="round"/><polygon points="599.2,783.0 575.9,531.9 569.7,677.9" fill="rgb(91,56,20)" fill-opacity="0.887" stroke="rgb(91,56,20)" stroke-opacity="0.887" stroke-width="4.10" stroke-linejoin="round"/><polygon points="569.7,677.9 685.2,405.7 612.4,356.0" fill="rgb(255,186,62)" fill-opacity="0.997" stroke="rgb(255,186,62)" stroke-opacity="0.997" stroke-width="4.10" stroke-linejoin="round"/><polygon points="364.1,707.5 361.3,660.5 408.9,629.9" fill="rgb(95,59,21)" fill-opacity="0.860" stroke="rgb(95,59,21)" stroke-opacity="0.860" stroke-width="4.10" stroke-linejoin="round"/><polygon points="504.3,511.9 575.9,531.9 612.4,356.0" fill="rgb(255,174,57)" fill-opacity="0.996" stroke="rgb(255,174,57)" stroke-opacity="0.996" stroke-width="4.10" stroke-linejoin="round"/><polygon points="776.1,754.8 599.2,783.0 569.7,677.9" fill="rgb(231,147,48)" fill-opacity="0.986" stroke="rgb(231,147,48)" stroke-opacity="0.986" stroke-width="4.10" stroke-linejoin="round"/><polygon points="364.1,707.5 209.0,711.2 361.3,660.5" fill="rgb(53,31,12)" fill-opacity="0.879" stroke="rgb(53,31,12)" stroke-opacity="0.879" stroke-width="4.10" stroke-linejoin="round"/><polygon points="680.9,519.5 530.8,597.0 575.9,531.9" fill="rgb(255,167,55)" fill-opacity="0.978" stroke="rgb(255,167,55)" stroke-opacity="0.978" stroke-width="4.10" stroke-linejoin="round"/><polygon points="680.9,519.5 477.4,661.4 530.8,597.0" fill="rgb(113,70,24)" fill-opacity="0.850" stroke="rgb(113,70,24)" stroke-opacity="0.850" stroke-width="4.10" stroke-linejoin="round"/><polygon points="324.9,473.5 408.9,629.9 414.1,507.0" fill="rgb(255,168,55)" fill-opacity="0.920" stroke="rgb(255,168,55)" stroke-opacity="0.920" stroke-width="4.10" stroke-linejoin="round"/><polygon points="772.5,320.5 685.8,634.6 685.2,405.7" fill="rgb(254,162,53)" fill-opacity="0.976" stroke="rgb(254,162,53)" stroke-opacity="0.976" stroke-width="4.10" stroke-linejoin="round"/><polygon points="772.5,320.5 776.1,754.8 685.8,634.6" fill="rgb(197,125,41)" fill-opacity="0.952" stroke="rgb(197,125,41)" stroke-opacity="0.952" stroke-width="4.10" stroke-linejoin="round"/><polygon points="512.1,516.7 612.4,356.0 504.3,511.9" fill="rgb(156,98,33)" fill-opacity="0.811" stroke="rgb(156,98,33)" stroke-opacity="0.811" stroke-width="4.10" stroke-linejoin="round"/><polygon points="263.5,252.3 441.9,379.7 355.3,360.1" fill="rgb(255,216,86)" fill-opacity="0.949" stroke="rgb(255,216,86)" stroke-opacity="0.949" stroke-width="4.10" stroke-linejoin="round"/><polygon points="477.4,661.4 324.9,473.5 414.1,507.0" fill="rgb(184,116,39)" fill-opacity="0.890" stroke="rgb(184,116,39)" stroke-opacity="0.890" stroke-width="4.10" stroke-linejoin="round"/><polygon points="599.2,783.0 680.9,519.5 575.9,531.9" fill="rgb(234,149,49)" fill-opacity="0.981" stroke="rgb(234,149,49)" stroke-opacity="0.981" stroke-width="4.10" stroke-linejoin="round"/><polygon points="209.0,711.2 263.5,252.3 355.3,360.1" fill="rgb(255,255,125)" fill-opacity="0.969" stroke="rgb(255,255,125)" stroke-opacity="0.969" stroke-width="4.10" stroke-linejoin="round"/><polygon points="367.4,234.8 504.3,511.9 441.9,379.7" fill="rgb(93,57,20)" fill-opacity="0.793" stroke="rgb(93,57,20)" stroke-opacity="0.793" stroke-width="4.10" stroke-linejoin="round"/><polygon points="718.0,256.5 685.2,405.7 612.4,356.0" fill="rgb(255,178,58)" fill-opacity="0.976" stroke="rgb(255,178,58)" stroke-opacity="0.976" stroke-width="4.10" stroke-linejoin="round"/><polygon points="324.9,473.5 364.1,707.5 408.9,629.9" fill="rgb(255,190,65)" fill-opacity="0.941" stroke="rgb(255,190,65)" stroke-opacity="0.941" stroke-width="4.10" stroke-linejoin="round"/><polygon points="812.0,821.2 599.2,783.0 776.1,754.8" fill="rgb(84,52,19)" fill-opacity="0.911" stroke="rgb(84,52,19)" stroke-opacity="0.911" stroke-width="4.10" stroke-linejoin="round"/><polygon points="662.0,835.0 680.9,519.5 599.2,783.0" fill="rgb(167,105,35)" fill-opacity="0.949" stroke="rgb(167,105,35)" stroke-opacity="0.949" stroke-width="4.10" stroke-linejoin="round"/><polygon points="367.4,234.8 512.1,516.7 504.3,511.9" fill="rgb(53,31,12)" fill-opacity="0.796" stroke="rgb(53,31,12)" stroke-opacity="0.796" stroke-width="4.10" stroke-linejoin="round"/><polygon points="512.1,516.7 718.0,256.5 612.4,356.0" fill="rgb(103,64,23)" fill-opacity="0.853" stroke="rgb(103,64,23)" stroke-opacity="0.853" stroke-width="4.10" stroke-linejoin="round"/><polygon points="317.9,778.9 209.0,711.2 364.1,707.5" fill="rgb(138,87,30)" fill-opacity="0.945" stroke="rgb(138,87,30)" stroke-opacity="0.945" stroke-width="4.10" stroke-linejoin="round"/><polygon points="180.4,776.8 263.5,252.3 209.0,711.2" fill="rgb(205,130,43)" fill-opacity="0.824" stroke="rgb(205,130,43)" stroke-opacity="0.824" stroke-width="4.10" stroke-linejoin="round"/><polygon points="263.5,252.3 367.4,234.8 441.9,379.7" fill="rgb(255,220,89)" fill-opacity="0.951" stroke="rgb(255,220,89)" stroke-opacity="0.951" stroke-width="4.10" stroke-linejoin="round"/><polygon points="718.0,256.5 772.5,320.5 685.2,405.7" fill="rgb(255,184,60)" fill-opacity="0.978" stroke="rgb(255,184,60)" stroke-opacity="0.978" stroke-width="4.10" stroke-linejoin="round"/><polygon points="521.0,691.4 324.9,473.5 477.4,661.4" fill="rgb(113,70,24)" fill-opacity="0.830" stroke="rgb(113,70,24)" stroke-opacity="0.830" stroke-width="4.10" stroke-linejoin="round"/><polygon points="317.9,778.9 180.4,776.8 209.0,711.2" fill="rgb(126,79,27)" fill-opacity="0.935" stroke="rgb(126,79,27)" stroke-opacity="0.935" stroke-width="4.10" stroke-linejoin="round"/><polygon points="705.3,544.5 477.4,661.4 680.9,519.5" fill="rgb(73,45,17)" fill-opacity="0.878" stroke="rgb(73,45,17)" stroke-opacity="0.878" stroke-width="4.10" stroke-linejoin="round"/><polygon points="812.0,821.2 662.0,835.0 599.2,783.0" fill="rgb(137,86,29)" fill-opacity="0.946" stroke="rgb(137,86,29)" stroke-opacity="0.946" stroke-width="4.10" stroke-linejoin="round"/><polygon points="310.5,480.8 364.1,707.5 324.9,473.5" fill="rgb(204,130,43)" fill-opacity="0.854" stroke="rgb(204,130,43)" stroke-opacity="0.854" stroke-width="4.10" stroke-linejoin="round"/><polygon points="705.3,544.5 521.0,691.4 477.4,661.4" fill="rgb(62,37,14)" fill-opacity="0.906" stroke="rgb(62,37,14)" stroke-opacity="0.906" stroke-width="4.10" stroke-linejoin="round"/><polygon points="662.0,835.0 705.3,544.5 680.9,519.5" fill="rgb(63,38,14)" fill-opacity="0.851" stroke="rgb(63,38,14)" stroke-opacity="0.851" stroke-width="4.10" stroke-linejoin="round"/><polygon points="872.0,244.9 776.1,754.8 772.5,320.5" fill="rgb(199,127,42)" fill-opacity="0.954" stroke="rgb(199,127,42)" stroke-opacity="0.954" stroke-width="4.10" stroke-linejoin="round"/><polygon points="310.5,480.8 317.9,778.9 364.1,707.5" fill="rgb(255,179,58)" fill-opacity="0.922" stroke="rgb(255,179,58)" stroke-opacity="0.922" stroke-width="4.10" stroke-linejoin="round"/><polygon points="872.0,244.9 812.0,821.2 776.1,754.8" fill="rgb(54,32,13)" fill-opacity="0.856" stroke="rgb(54,32,13)" stroke-opacity="0.856" stroke-width="4.10" stroke-linejoin="round"/><polygon points="521.0,691.4 310.5,480.8 324.9,473.5" fill="rgb(122,76,26)" fill-opacity="0.862" stroke="rgb(122,76,26)" stroke-opacity="0.862" stroke-width="4.10" stroke-linejoin="round"/><polygon points="480.9,484.0 718.0,256.5 512.1,516.7" fill="rgb(255,222,90)" fill-opacity="0.894" stroke="rgb(255,222,90)" stroke-opacity="0.894" stroke-width="4.10" stroke-linejoin="round"/><polygon points="347.1,200.8 512.1,516.7 367.4,234.8" fill="rgb(92,57,20)" fill-opacity="0.796" stroke="rgb(92,57,20)" stroke-opacity="0.796" stroke-width="4.10" stroke-linejoin="round"/><polygon points="742.0,245.9 772.5,320.5 718.0,256.5" fill="rgb(113,70,25)" fill-opacity="0.828" stroke="rgb(113,70,25)" stroke-opacity="0.828" stroke-width="4.10" stroke-linejoin="round"/><polygon points="180.4,776.8 189.7,176.6 263.5,252.3" fill="rgb(255,182,59)" fill-opacity="0.913" stroke="rgb(255,182,59)" stroke-opacity="0.913" stroke-width="4.10" stroke-linejoin="round"/><polygon points="347.1,200.8 480.9,484.0 512.1,516.7" fill="rgb(124,78,27)" fill-opacity="0.822" stroke="rgb(124,78,27)" stroke-opacity="0.822" stroke-width="4.10" stroke-linejoin="round"/><polygon points="189.7,176.6 367.4,234.8 263.5,252.3" fill="rgb(255,180,59)" fill-opacity="0.901" stroke="rgb(255,180,59)" stroke-opacity="0.901" stroke-width="4.10" stroke-linejoin="round"/><polygon points="812.0,821.2 662.0,835.0 612.1,802.0" fill="rgb(255,173,57)" fill-opacity="0.882" stroke="rgb(255,173,57)" stroke-opacity="0.882" stroke-width="4.10" stroke-linejoin="round"/><polygon points="317.9,778.9 180.4,776.8 232.3,757.8" fill="rgb(234,149,49)" fill-opacity="0.846" stroke="rgb(234,149,49)" stroke-opacity="0.846" stroke-width="4.10" stroke-linejoin="round"/><polygon points="521.0,691.4 310.5,480.8 381.1,530.1" fill="rgb(138,87,30)" fill-opacity="0.843" stroke="rgb(138,87,30)" stroke-opacity="0.843" stroke-width="4.10" stroke-linejoin="round"/><polygon points="480.9,484.0 742.0,245.9 718.0,256.5" fill="rgb(163,103,35)" fill-opacity="0.811" stroke="rgb(163,103,35)" stroke-opacity="0.811" stroke-width="4.10" stroke-linejoin="round"/><polygon points="662.0,835.0 705.3,544.5 666.8,529.6" fill="rgb(255,183,60)" fill-opacity="0.905" stroke="rgb(255,183,60)" stroke-opacity="0.905" stroke-width="4.10" stroke-linejoin="round"/><polygon points="310.5,480.8 317.9,778.9 377.7,754.0" fill="rgb(144,91,31)" fill-opacity="0.925" stroke="rgb(144,91,31)" stroke-opacity="0.925" stroke-width="4.10" stroke-linejoin="round"/><polygon points="742.0,245.9 872.0,244.9 772.5,320.5" fill="rgb(255,217,87)" fill-opacity="0.926" stroke="rgb(255,217,87)" stroke-opacity="0.926" stroke-width="4.10" stroke-linejoin="round"/><polygon points="705.3,544.5 521.0,691.4 514.6,632.0" fill="rgb(255,233,99)" fill-opacity="0.898" stroke="rgb(255,233,99)" stroke-opacity="0.898" stroke-width="4.10" stroke-linejoin="round"/><polygon points="189.7,176.6 347.1,200.8 367.4,234.8" fill="rgb(255,212,82)" fill-opacity="0.919" stroke="rgb(255,212,82)" stroke-opacity="0.919" stroke-width="4.10" stroke-linejoin="round"/><polygon points="662.0,835.0 666.8,529.6 612.1,802.0" fill="rgb(255,197,70)" fill-opacity="0.912" stroke="rgb(255,197,70)" stroke-opacity="0.912" stroke-width="4.10" stroke-linejoin="round"/><polygon points="872.0,244.9 812.0,821.2 771.7,815.2" fill="rgb(255,178,58)" fill-opacity="0.904" stroke="rgb(255,178,58)" stroke-opacity="0.904" stroke-width="4.10" stroke-linejoin="round"/><polygon points="521.0,691.4 381.1,530.1 514.6,632.0" fill="rgb(187,119,40)" fill-opacity="0.879" stroke="rgb(187,119,40)" stroke-opacity="0.879" stroke-width="4.10" stroke-linejoin="round"/><polygon points="812.0,821.2 612.1,802.0 771.7,815.2" fill="rgb(195,124,41)" fill-opacity="0.812" stroke="rgb(195,124,41)" stroke-opacity="0.812" stroke-width="4.10" stroke-linejoin="round"/><polygon points="310.5,480.8 377.7,754.0 381.1,530.1" fill="rgb(190,121,40)" fill-opacity="0.960" stroke="rgb(190,121,40)" stroke-opacity="0.960" stroke-width="4.10" stroke-linejoin="round"/><polygon points="317.9,778.9 232.3,757.8 377.7,754.0" fill="rgb(255,163,53)" fill-opacity="0.861" stroke="rgb(255,163,53)" stroke-opacity="0.861" stroke-width="4.10" stroke-linejoin="round"/><polygon points="347.1,200.8 480.9,484.0 508.3,476.2" fill="rgb(140,88,30)" fill-opacity="0.888" stroke="rgb(140,88,30)" stroke-opacity="0.888" stroke-width="4.10" stroke-linejoin="round"/><polygon points="180.4,776.8 189.7,176.6 241.6,223.6" fill="rgb(141,88,30)" fill-opacity="0.921" stroke="rgb(141,88,30)" stroke-opacity="0.921" stroke-width="4.10" stroke-linejoin="round"/><polygon points="480.9,484.0 742.0,245.9 678.0,292.1" fill="rgb(242,155,51)" fill-opacity="0.820" stroke="rgb(242,155,51)" stroke-opacity="0.820" stroke-width="4.10" stroke-linejoin="round"/><polygon points="705.3,544.5 514.6,632.0 666.8,529.6" fill="rgb(255,216,86)" fill-opacity="0.887" stroke="rgb(255,216,86)" stroke-opacity="0.887" stroke-width="4.10" stroke-linejoin="round"/><polygon points="180.4,776.8 241.6,223.6 232.3,757.8" fill="rgb(104,65,23)" fill-opacity="0.899" stroke="rgb(104,65,23)" stroke-opacity="0.899" stroke-width="4.10" stroke-linejoin="round"/><polygon points="480.9,484.0 678.0,292.1 508.3,476.2" fill="rgb(115,72,25)" fill-opacity="0.847" stroke="rgb(115,72,25)" stroke-opacity="0.847" stroke-width="4.10" stroke-linejoin="round"/><polygon points="189.7,176.6 347.1,200.8 365.7,261.0" fill="rgb(124,77,27)" fill-opacity="0.914" stroke="rgb(124,77,27)" stroke-opacity="0.914" stroke-width="4.10" stroke-linejoin="round"/><polygon points="742.0,245.9 872.0,244.9 787.4,307.3" fill="rgb(138,87,30)" fill-opacity="0.938" stroke="rgb(138,87,30)" stroke-opacity="0.938" stroke-width="4.10" stroke-linejoin="round"/><polygon points="347.1,200.8 508.3,476.2 365.7,261.0" fill="rgb(112,69,24)" fill-opacity="0.827" stroke="rgb(112,69,24)" stroke-opacity="0.827" stroke-width="4.10" stroke-linejoin="round"/><polygon points="872.0,244.9 771.7,815.2 787.4,307.3" fill="rgb(255,233,99)" fill-opacity="0.954" stroke="rgb(255,233,99)" stroke-opacity="0.954" stroke-width="4.10" stroke-linejoin="round"/><polygon points="771.7,815.2 612.1,802.0 559.9,718.1" fill="rgb(255,221,89)" fill-opacity="0.953" stroke="rgb(255,221,89)" stroke-opacity="0.953" stroke-width="4.10" stroke-linejoin="round"/><polygon points="742.0,245.9 787.4,307.3 678.0,292.1" fill="rgb(138,87,30)" fill-opacity="0.941" stroke="rgb(138,87,30)" stroke-opacity="0.941" stroke-width="4.10" stroke-linejoin="round"/><polygon points="612.1,802.0 666.8,529.6 609.1,583.8" fill="rgb(255,210,81)" fill-opacity="0.920" stroke="rgb(255,210,81)" stroke-opacity="0.920" stroke-width="4.10" stroke-linejoin="round"/><polygon points="381.1,530.1 377.7,754.0 420.5,693.8" fill="rgb(87,53,19)" fill-opacity="0.891" stroke="rgb(87,53,19)" stroke-opacity="0.891" stroke-width="4.10" stroke-linejoin="round"/><polygon points="377.7,754.0 232.3,757.8 296.9,658.1" fill="rgb(255,255,130)" fill-opacity="0.971" stroke="rgb(255,255,130)" stroke-opacity="0.971" stroke-width="4.10" stroke-linejoin="round"/><polygon points="514.6,632.0 381.1,530.1 378.8,509.1" fill="rgb(134,84,29)" fill-opacity="0.825" stroke="rgb(134,84,29)" stroke-opacity="0.825" stroke-width="4.10" stroke-linejoin="round"/><polygon points="666.8,529.6 514.6,632.0 485.8,605.0" fill="rgb(255,255,117)" fill-opacity="0.915" stroke="rgb(255,255,117)" stroke-opacity="0.915" stroke-width="4.10" stroke-linejoin="round"/><polygon points="189.7,176.6 365.7,261.0 241.6,223.6" fill="rgb(78,47,17)" fill-opacity="0.875" stroke="rgb(78,47,17)" stroke-opacity="0.875" stroke-width="4.10" stroke-linejoin="round"/><polygon points="612.1,802.0 609.1,583.8 559.9,718.1" fill="rgb(255,255,139)" fill-opacity="0.965" stroke="rgb(255,255,139)" stroke-opacity="0.965" stroke-width="4.10" stroke-linejoin="round"/><polygon points="508.3,476.2 678.0,292.1 652.8,388.2" fill="rgb(103,64,22)" fill-opacity="0.929" stroke="rgb(103,64,22)" stroke-opacity="0.929" stroke-width="4.10" stroke-linejoin="round"/><polygon points="787.4,307.3 771.7,815.2 684.2,736.3" fill="rgb(255,253,115)" fill-opacity="0.975" stroke="rgb(255,253,115)" stroke-opacity="0.975" stroke-width="4.10" stroke-linejoin="round"/><polygon points="771.7,815.2 559.9,718.1 684.2,736.3" fill="rgb(255,198,71)" fill-opacity="0.941" stroke="rgb(255,198,71)" stroke-opacity="0.941" stroke-width="4.10" stroke-linejoin="round"/><polygon points="365.7,261.0 508.3,476.2 481.3,523.7" fill="rgb(221,141,46)" fill-opacity="0.918" stroke="rgb(221,141,46)" stroke-opacity="0.918" stroke-width="4.10" stroke-linejoin="round"/><polygon points="678.0,292.1 787.4,307.3 709.6,395.5" fill="rgb(214,136,45)" fill-opacity="0.982" stroke="rgb(214,136,45)" stroke-opacity="0.982" stroke-width="4.10" stroke-linejoin="round"/><polygon points="377.7,754.0 296.9,658.1 420.5,693.8" fill="rgb(255,180,59)" fill-opacity="0.940" stroke="rgb(255,180,59)" stroke-opacity="0.940" stroke-width="4.10" stroke-linejoin="round"/><polygon points="666.8,529.6 485.8,605.0 609.1,583.8" fill="rgb(85,52,19)" fill-opacity="0.913" stroke="rgb(85,52,19)" stroke-opacity="0.913" stroke-width="4.10" stroke-linejoin="round"/><polygon points="381.1,530.1 420.5,693.8 378.8,509.1" fill="rgb(89,55,20)" fill-opacity="0.798" stroke="rgb(89,55,20)" stroke-opacity="0.798" stroke-width="4.10" stroke-linejoin="round"/><polygon points="508.3,476.2 652.8,388.2 481.3,523.7" fill="rgb(104,65,23)" fill-opacity="0.856" stroke="rgb(104,65,23)" stroke-opacity="0.856" stroke-width="4.10" stroke-linejoin="round"/><polygon points="514.6,632.0 378.8,509.1 485.8,605.0" fill="rgb(88,54,20)" fill-opacity="0.792" stroke="rgb(88,54,20)" stroke-opacity="0.792" stroke-width="4.10" stroke-linejoin="round"/><polygon points="678.0,292.1 709.6,395.5 652.8,388.2" fill="rgb(225,143,47)" fill-opacity="0.979" stroke="rgb(225,143,47)" stroke-opacity="0.979" stroke-width="4.10" stroke-linejoin="round"/><polygon points="787.4,307.3 684.2,736.3 709.6,395.5" fill="rgb(255,247,110)" fill-opacity="0.989" stroke="rgb(255,247,110)" stroke-opacity="0.989" stroke-width="4.10" stroke-linejoin="round"/><polygon points="232.3,757.8 241.6,223.6 363.6,358.7" fill="rgb(238,152,50)" fill-opacity="0.978" stroke="rgb(238,152,50)" stroke-opacity="0.978" stroke-width="4.10" stroke-linejoin="round"/><polygon points="559.9,718.1 709.6,395.5 684.2,736.3" fill="rgb(255,182,59)" fill-opacity="0.999" stroke="rgb(255,182,59)" stroke-opacity="0.999" stroke-width="4.10" stroke-linejoin="round"/><polygon points="232.3,757.8 363.6,358.7 296.9,658.1" fill="rgb(173,110,37)" fill-opacity="0.949" stroke="rgb(173,110,37)" stroke-opacity="0.949" stroke-width="4.10" stroke-linejoin="round"/><polygon points="241.6,223.6 365.7,261.0 426.7,346.6" fill="rgb(204,130,43)" fill-opacity="0.956" stroke="rgb(204,130,43)" stroke-opacity="0.956" stroke-width="4.10" stroke-linejoin="round"/><polygon points="559.9,718.1 652.8,388.2 709.6,395.5" fill="rgb(255,216,86)" fill-opacity="1.000" stroke="rgb(255,216,86)" stroke-opacity="1.000" stroke-width="4.10" stroke-linejoin="round"/><polygon points="365.7,261.0 481.3,523.7 426.7,346.6" fill="rgb(158,100,34)" fill-opacity="0.913" stroke="rgb(158,100,34)" stroke-opacity="0.913" stroke-width="4.10" stroke-linejoin="round"/><polygon points="481.3,523.7 609.1,583.8 485.8,605.0" fill="rgb(255,219,88)" fill-opacity="0.999" stroke="rgb(255,219,88)" stroke-opacity="0.999" stroke-width="4.10" stroke-linejoin="round"/><polygon points="481.3,523.7 652.8,388.2 609.1,583.8" fill="rgb(255,209,80)" fill-opacity="1.000" stroke="rgb(255,209,80)" stroke-opacity="1.000" stroke-width="4.10" stroke-linejoin="round"/><polygon points="426.7,346.6 481.3,523.7 485.8,605.0" fill="rgb(255,202,74)" fill-opacity="0.998" stroke="rgb(255,202,74)" stroke-opacity="0.998" stroke-width="4.10" stroke-linejoin="round"/><polygon points="296.9,658.1 426.7,346.6 420.5,693.8" fill="rgb(255,182,59)" fill-opacity="0.999" stroke="rgb(255,182,59)" stroke-opacity="0.999" stroke-width="4.10" stroke-linejoin="round"/><polygon points="426.7,346.6 485.8,605.0 378.8,509.1" fill="rgb(255,233,99)" fill-opacity="0.998" stroke="rgb(255,233,99)" stroke-opacity="0.998" stroke-width="4.10" stroke-linejoin="round"/><polygon points="241.6,223.6 426.7,346.6 363.6,358.7" fill="rgb(210,134,44)" fill-opacity="0.961" stroke="rgb(210,134,44)" stroke-opacity="0.961" stroke-width="4.10" stroke-linejoin="round"/><polygon points="296.9,658.1 363.6,358.7 426.7,346.6" fill="rgb(255,255,136)" fill-opacity="0.971" stroke="rgb(255,255,136)" stroke-opacity="0.971" stroke-width="4.10" stroke-linejoin="round"/></g></svg>